<svg width="932" height="773" viewBox="0 0 932 773" fill="none" xmlns="http://www.w3.org/2000/svg">
<g clip-path="url(#clip0_1_1083)">
<path d="M761.807 -0.000552955L0 246.334L170.193 772.668L932 526.334L761.807 -0.000552955Z" fill="#607B9B"/>
<path d="M238.044 578.576C238.803 574.78 243.548 571.174 252.278 567.758C261.008 564.342 271.825 560.736 284.73 556.941C297.635 553.145 311.868 548.97 327.43 544.415C342.992 539.861 357.984 534.737 372.408 529.043C386.831 523.35 399.926 516.898 411.692 509.686C423.838 502.474 432.757 494.124 438.451 484.635C438.451 478.942 434.655 474.577 427.064 471.54C419.852 468.504 409.984 466.037 397.458 464.139C385.313 461.862 371.269 460.154 355.328 459.015C339.766 457.497 323.635 455.599 306.934 453.322C290.613 450.665 274.482 447.628 258.54 444.212C242.979 440.417 228.935 435.293 216.41 428.84C204.264 422.008 194.395 413.468 186.804 403.22C179.593 392.972 175.987 380.447 175.987 365.644C175.987 350.841 179.213 336.228 185.665 321.805C192.118 307.002 200.658 292.769 211.286 279.105C222.293 265.441 234.628 252.726 248.292 240.959C262.336 229.193 276.949 218.945 292.131 210.215C307.314 201.485 322.306 194.653 337.109 189.719C352.291 184.785 366.335 182.318 379.24 182.318C382.656 182.318 386.261 182.318 390.057 182.318C393.853 181.938 397.079 182.128 399.736 182.887C402.772 183.267 405.239 184.595 407.137 186.873C409.035 189.15 409.984 192.566 409.984 197.121C409.984 208.128 406.378 216.098 399.166 221.033C391.955 225.587 383.225 227.865 372.977 227.865L350.773 211.923C342.043 211.923 332.364 214.39 321.737 219.325C311.489 224.259 300.861 230.901 289.854 239.251C279.226 247.222 268.788 256.521 258.54 267.149C248.292 277.776 239.183 288.784 231.212 300.17C223.621 311.557 217.358 322.944 212.424 334.331C207.87 345.717 205.592 355.965 205.592 365.075C205.592 378.359 209.198 389.177 216.41 397.527C224.001 405.498 233.869 411.95 246.015 416.884C258.54 421.439 272.774 424.855 288.715 427.132C304.657 429.41 320.788 431.307 337.109 432.826C353.43 434.344 369.561 435.862 385.502 437.38C401.444 438.519 415.487 440.796 427.633 444.212C440.159 447.628 450.027 452.183 457.239 457.876C464.83 463.57 468.625 471.351 468.625 481.219C472.801 487.292 471.852 494.314 465.779 502.285C460.085 509.876 450.976 517.657 438.451 525.627C426.305 533.219 411.692 540.999 394.612 548.97C377.911 556.561 360.641 563.583 342.802 570.036C324.963 576.109 307.693 581.422 290.993 585.977C274.292 590.152 260.059 592.809 248.292 593.948C244.876 593.948 241.84 592.809 239.183 590.532C236.906 588.254 236.526 584.269 238.044 578.576ZM489.987 229.573C489.987 225.777 491.126 223.12 493.403 221.602C495.68 219.704 498.527 218.376 501.943 217.617C505.359 216.858 508.965 216.478 512.76 216.478C516.556 216.478 519.782 216.288 522.439 215.909V269.996C547.49 262.784 567.986 255.572 583.927 248.361C599.869 240.77 614.102 233.938 626.628 227.865C639.153 221.412 651.489 215.719 663.634 210.785C676.16 205.471 691.152 200.916 708.612 197.121C711.269 197.121 713.167 198.449 714.305 201.106C715.444 203.763 716.013 206.23 716.013 208.507C716.013 212.682 713.546 216.098 708.612 218.755L525.855 306.433L533.256 466.986C561.344 451.424 585.066 438.139 604.423 427.132C623.781 416.125 639.722 407.016 652.248 399.804C664.773 392.593 674.452 387.089 681.284 383.293C688.495 379.498 693.809 376.841 697.225 375.323L703.488 372.476C704.247 372.096 704.816 371.907 705.196 371.907C705.955 371.907 706.524 372.666 706.904 374.184C707.283 375.323 707.473 376.841 707.473 378.739V385.571C707.473 387.469 707.853 389.177 708.612 390.695C706.714 392.972 701.021 397.147 691.532 403.22C682.422 409.293 671.415 416.315 658.51 424.286C645.605 431.877 631.752 440.037 616.949 448.767C602.526 457.117 589.051 465.088 576.526 472.679C564.001 480.27 553.563 486.913 545.212 492.606C537.242 497.92 533.256 501.526 533.256 503.423V590.532C533.256 595.466 532.308 599.262 530.41 601.918C528.891 604.575 526.235 605.904 522.439 605.904C518.264 605.904 514.468 601.159 511.052 591.67C508.016 582.181 505.359 569.656 503.082 554.094C501.184 538.153 499.476 519.934 497.958 499.438C496.439 478.942 495.111 457.687 493.972 435.672C492.834 413.658 491.885 391.644 491.126 369.629C490.746 347.615 490.366 327.309 489.987 308.71C489.987 289.733 489.987 273.412 489.987 259.748V229.573Z" fill="#191E41"/>
</g>
<defs>
<clipPath id="clip0_1_1083">
<rect width="932" height="773" fill="white"/>
</clipPath>
</defs>
</svg>
